# xmcd
#
# Track frame offsets: 
#        150
#        22031
#        66700
#        73518
#        97785
#        142004
#        171855
#        199409
#        220105
#
# Disc length: 3205 seconds
#
# Revision: 0
# Processed by: cddbd v1.5.2PL0 Copyright (c) Steve Scherf et al.
# Submitted via: ExactAudioCopy v1.0b4
#
DISCID=8b0c8309
DTITLE=Hobo - Requiem a bluesért
DYEAR=2014
DGENRE=Blues
TTITLE0=Intoritusz
TTITLE1=A blues siratása
TTITLE2=Én nem tudok semmit
TTITLE3=Blues magyarul
TTITLE4=Hol vagyok hőseim?
TTITLE5=Fenn a Syriuson
TTITLE6=Átkok és áldások
TTITLE7=Vénember blues
TTITLE8=Hatezer gitár
EXTD=
EXTT0=
EXTT1=
EXTT2=
EXTT3=
EXTT4=
EXTT5=
EXTT6=
EXTT7=
EXTT8=
PLAYORDER=
